<svg width="60" height="60" viewBox="0 0 60 60" fill="none" xmlns="http://www.w3.org/2000/svg">
<path d="M29.7305 0C2.15897 0 0 2.15897 0 29.7305V30.2695C0 57.841 2.15897 60 29.7305 60H30.2695C57.841 60 60 57.841 60 30.2695V30C60 2.178 57.822 0 30 0H29.7305ZM24 6H36C52.6935 6 54 7.3065 54 24V36C54 52.6935 52.6935 54 36 54H24C7.3065 54 6 52.6935 6 36V24C6 7.3065 7.3065 6 24 6ZM44.9912 12C43.3337 12.0045 41.9955 13.3513 42 15.0088C42.0045 16.6663 43.3513 18.0045 45.0088 18C46.6663 17.9955 48.0045 16.6487 48 14.9912C47.9955 13.3337 46.6487 11.9955 44.9912 12ZM29.9648 15C21.6818 15.0195 14.9805 21.7522 15 30.0352C15.0195 38.3182 21.7522 45.0195 30.0352 45C38.3182 44.9805 45.0195 38.2478 45 29.9648C44.9805 21.6818 38.2478 14.9805 29.9648 15ZM29.9795 21C34.949 20.988 38.988 25.01 39 29.9795C39.0105 34.949 34.99 38.988 30.0205 39C25.051 39.012 21.012 34.9915 21 30.0205C20.988 25.051 25.01 21.012 29.9795 21Z" fill="#C09187"/>
</svg>
