<svg width="756" height="155" viewBox="0 0 756 155" fill="none" xmlns="http://www.w3.org/2000/svg">
<path d="M21.12 89.45C21.12 108.04 23.67 108.34 34.61 108.34V109.99H0V108.34C7.79 108.34 9.89001 106.24 9.89001 90.05V18.57C9.89001 7.63001 8.84 5.98999 0.75 5.98999V4.48999H22.48C52.3 4.48999 71.63 7.33001 71.63 34.76C71.63 62.19 52.3 64.73 22.48 64.73H21.13V89.45H21.12ZM22.47 63.08C42.7 63.08 59.33 63.08 59.33 34.76C59.33 6.44001 41.5 5.98999 22.47 5.98999H21.12V63.08H22.47V63.08Z" fill="#1D1D1B"/>
<path d="M111.76 109.98H89.44V108.33C95.13 106.67 95.43 105.93 95.43 98.2899V52.4399C95.43 47.3399 94.24 45.2499 87.94 44.3499V42.8499L105.62 39.4099V98.2999C105.62 106.54 106.37 106.99 111.76 108.34V109.99V109.98ZM92.73 20.3699C92.73 16.7699 95.43 13.9299 99.03 13.9299C102.63 13.9299 105.47 16.7699 105.47 20.3699C105.47 23.9699 102.47 26.6699 99.03 26.6699C95.59 26.6699 92.73 23.8299 92.73 20.3699V20.3699Z" fill="#1D1D1B"/>
<path d="M185.93 92.45C184.88 99.19 176.79 111.33 160.31 111.33C142.18 111.33 128.84 97.09 128.84 76.11C128.84 53.49 142.77 39.41 160.16 39.41C175.59 39.41 188.33 50.35 188.33 74.0201H140.38C140.68 96.9501 150.42 105.33 163 105.93C172.59 106.38 182.33 99.63 184.73 91.99L185.93 92.44V92.45ZM178.14 72.22C178.14 49 166.6 41.06 160.01 41.06C151.47 41.06 140.38 51.24 140.38 72.22H178.14Z" fill="#1D1D1B"/>
<path d="M276.73 108.63L263.09 111.18C258.89 111.93 258.89 108.49 258.89 108.49V100.85C254.4 107.89 244.96 111.33 237.31 111.33C215.73 111.33 205.99 94.1 205.99 74.62C205.99 51.69 220.83 39.41 240.31 39.41C247.8 39.41 254.09 41.8 258.89 45.4V13.03C258.89 7.79 257.39 5.53998 251.25 4.94998V3.29001L269.08 0V99.65C269.08 106.99 270.73 107.44 276.72 107.14V108.64L276.73 108.63ZM258.9 61.13C258.9 48.85 250.06 41.06 240.77 41.06C231.48 41.06 218.74 47.35 218.74 72.08C218.74 96.81 227.58 107.44 241.07 107.44C250.81 107.44 258.9 100.4 258.9 89.91V61.14V61.13Z" fill="#1D1D1B"/>
<path d="M346.99 92.45C345.94 99.19 337.85 111.33 321.36 111.33C303.23 111.33 289.89 97.09 289.89 76.11C289.89 53.49 303.83 39.41 321.21 39.41C336.64 39.41 349.38 50.35 349.38 74.0201H301.43C301.73 96.9501 311.47 105.33 324.05 105.93C333.64 106.38 343.38 99.63 345.78 91.99L346.98 92.44L346.99 92.45ZM339.2 72.22C339.2 49 327.66 41.06 321.07 41.06C312.53 41.06 301.44 51.24 301.44 72.22H339.2Z" fill="#1D1D1B"/>
<path d="M467.31 109.98H444.98V108.48C450.67 106.82 450.98 105.93 450.98 98.2899V64.4299C450.98 52.4399 446.78 45.0999 435.99 45.0999C427.3 45.0999 422.5 53.4899 421.01 58.5899V98.2999C421.01 106.54 421.91 107.14 427.15 108.49V109.99H404.83V108.49C410.52 106.83 410.82 105.94 410.82 98.2999V64.4399C410.82 52.4499 406.92 45.1099 395.99 45.1099C387.3 45.1099 382.21 53.3399 380.71 58.2999V98.3099C380.71 106.55 381.46 107 386.85 108.35V110H364.38V108.35C370.07 106.69 370.38 105.95 370.38 98.3099V52.7599C370.38 47.5099 369.18 45.2699 362.89 44.3599V42.8599L380.72 39.4199V54.7C383.57 46.3 391.81 39.4199 401.25 39.4199C411.74 39.4199 418.48 44.0599 420.43 55.5999C423.13 46.7599 431.52 39.4199 441.11 39.4199C453.55 39.4199 461.19 45.8599 461.19 63.8399V98.2999C461.19 106.54 461.94 107.14 467.34 108.49V109.99L467.31 109.98Z" fill="#1D1D1B"/>
<path d="M515.54 111.33C492.76 111.33 481.53 95 481.53 75.37C481.53 55.74 492.77 39.41 515.54 39.41C538.31 39.41 549.56 55.59 549.56 75.37C549.56 95.15 538.47 111.33 515.54 111.33ZM515.54 41.06C503.7 41.06 493.51 48.25 493.51 75.37C493.51 102.49 503.7 109.68 515.54 109.68C527.38 109.68 537.42 102.49 537.42 75.37C537.42 48.25 527.38 41.06 515.54 41.06V41.06Z" fill="#1D1D1B"/>
<path d="M630.61 109.98H608.28V108.48C613.97 106.82 614.28 105.93 614.28 98.2899V64.4299C614.28 52.7399 608.28 45.0999 597.2 45.0999C588.66 45.0999 582.51 53.1799 580.72 58.2899V98.2999C580.72 106.54 581.47 106.99 586.86 108.34V109.99H564.39V108.34C570.08 106.68 570.39 105.94 570.39 98.2999V52.5999C570.39 47.3499 569.19 45.2599 562.89 44.3599V42.8599L580.72 39.4199V54.8499C583.72 46.4499 593.46 39.4199 602.9 39.4199C615.19 39.4199 624.48 45.8599 624.48 63.8399V98.2999C624.48 106.54 625.23 107.14 630.63 108.49V109.99L630.61 109.98Z" fill="#1D1D1B"/>
<path d="M682.75 99.34C681.1 105.64 675.4 111.33 667.47 111.33C657.13 111.33 650.53 106.54 650.53 88.4V42.4H643.04L642.74 40.75H650.53V18.72L660.87 17.37V40.75H678.55L678.25 42.4H660.87V87.95C660.87 101.59 665.52 105.63 672.41 105.63C676.76 105.63 680.35 102.34 681.55 98.74L682.75 99.33V99.34Z" fill="#1D1D1B"/>
<path d="M753.32 92.45C752.27 99.19 744.18 111.33 727.7 111.33C709.56 111.33 696.23 97.09 696.23 76.11C696.23 53.49 710.17 39.41 727.55 39.41C742.98 39.41 755.72 50.35 755.72 74.0201H707.77C708.07 96.9501 717.81 105.33 730.4 105.93C739.99 106.38 749.73 99.63 752.13 91.99L753.33 92.44L753.32 92.45ZM745.53 72.22C745.53 49 733.99 41.06 727.4 41.06C718.86 41.06 707.77 51.24 707.77 72.22H745.53Z" fill="#1D1D1B"/>
<path d="M582.49 144.77C582.2 143.72 581.7 142.89 580.99 142.3C580.28 141.71 579.38 141.42 578.29 141.42C577.46 141.42 576.74 141.59 576.14 141.94C575.54 142.28 575.05 142.74 574.67 143.32C574.29 143.9 574.01 144.54 573.82 145.25C573.64 145.97 573.55 146.7 573.55 147.42C573.55 148.14 573.64 148.89 573.81 149.6C573.98 150.3 574.26 150.95 574.64 151.51C575.02 152.07 575.51 152.52 576.11 152.86C576.71 153.2 577.44 153.36 578.29 153.36C579.51 153.36 580.48 153.03 581.22 152.36C581.95 151.69 582.42 150.76 582.62 149.58H584.36C584.21 150.36 583.98 151.08 583.67 151.72C583.35 152.36 582.94 152.91 582.44 153.39C581.94 153.85 581.35 154.2 580.65 154.46C579.96 154.71 579.17 154.84 578.28 154.84C577.16 154.84 576.19 154.65 575.37 154.27C574.55 153.89 573.88 153.37 573.35 152.7C572.82 152.03 572.44 151.25 572.18 150.34C571.92 149.44 571.8 148.46 571.8 147.43C571.8 146.4 571.94 145.51 572.22 144.61C572.5 143.72 572.91 142.91 573.46 142.23C574 141.54 574.68 140.98 575.49 140.58C576.3 140.17 577.23 139.97 578.28 139.97C579.92 139.97 581.24 140.35 582.25 141.13C583.25 141.91 583.89 143.13 584.14 144.79H582.48L582.49 144.77Z" fill="#1D1D1B"/>
<path d="M602.79 154.82C601.88 154.8 601.03 154.64 600.24 154.33C599.45 154.02 598.76 153.56 598.17 152.94C597.58 152.32 597.11 151.54 596.76 150.62C596.42 149.7 596.24 148.61 596.24 147.38C596.24 146.35 596.38 145.38 596.65 144.48C596.92 143.59 597.33 142.8 597.88 142.13C598.42 141.46 599.11 140.92 599.92 140.53C600.73 140.14 601.69 139.95 602.78 139.95C603.87 139.95 604.85 140.14 605.67 140.53C606.49 140.92 607.17 141.44 607.71 142.11C608.26 142.77 608.66 143.56 608.93 144.47C609.19 145.37 609.32 146.35 609.32 147.38C609.32 148.5 609.17 149.53 608.86 150.43C608.55 151.33 608.11 152.12 607.54 152.77C606.97 153.42 606.28 153.93 605.47 154.29C604.66 154.65 603.77 154.82 602.78 154.82H602.79ZM607.59 147.38C607.59 146.55 607.5 145.76 607.32 145.04C607.14 144.32 606.86 143.68 606.48 143.14C606.1 142.61 605.61 142.19 605.01 141.87C604.41 141.56 603.67 141.41 602.8 141.41C601.93 141.41 601.22 141.58 600.61 141.91C600 142.25 599.51 142.69 599.12 143.25C598.73 143.81 598.46 144.44 598.28 145.16C598.09 145.88 598 146.62 598 147.38C598 148.25 598.11 149.06 598.32 149.79C598.53 150.52 598.83 151.16 599.23 151.69C599.63 152.21 600.13 152.62 600.73 152.92C601.33 153.22 602.02 153.35 602.8 153.35C603.65 153.35 604.39 153.19 604.99 152.85C605.6 152.52 606.09 152.07 606.48 151.5C606.87 150.93 607.14 150.29 607.32 149.59C607.5 148.88 607.59 148.14 607.59 147.38V147.38Z" fill="#1D1D1B"/>
<path d="M622.1 154.44V134.83H623.74V154.44H622.1Z" fill="#1D1D1B"/>
<path d="M638.45 147.76C638.45 148.52 638.55 149.25 638.75 149.93C638.95 150.61 639.25 151.2 639.63 151.7C640.02 152.2 640.52 152.6 641.12 152.89C641.72 153.19 642.41 153.34 643.19 153.34C644.26 153.34 645.18 153.06 645.94 152.5C646.7 151.94 647.22 151.14 647.47 150.1H649.3C649.1 150.77 648.83 151.4 648.51 151.97C648.19 152.54 647.78 153.04 647.28 153.47C646.79 153.9 646.21 154.23 645.54 154.46C644.87 154.7 644.09 154.82 643.2 154.82C642.08 154.82 641.11 154.63 640.29 154.25C639.47 153.87 638.8 153.35 638.27 152.68C637.74 152.01 637.36 151.23 637.1 150.33C636.84 149.44 636.72 148.47 636.72 147.44C636.72 146.41 636.87 145.43 637.17 144.52C637.47 143.62 637.89 142.82 638.45 142.14C639 141.46 639.68 140.92 640.48 140.53C641.28 140.14 642.19 139.95 643.2 139.95C645.14 139.95 646.67 140.61 647.78 141.95C648.88 143.29 649.43 145.22 649.41 147.76H638.46H638.45ZM647.66 146.39C647.66 145.71 647.56 145.05 647.37 144.45C647.18 143.84 646.9 143.32 646.53 142.86C646.16 142.42 645.69 142.07 645.13 141.8C644.56 141.54 643.92 141.41 643.19 141.41C642.46 141.41 641.82 141.55 641.27 141.82C640.72 142.09 640.25 142.45 639.85 142.9C639.45 143.35 639.15 143.88 638.91 144.49C638.67 145.08 638.52 145.73 638.44 146.39H647.65H647.66Z" fill="#1D1D1B"/>
<path d="M672.12 144.77C671.83 143.72 671.33 142.89 670.62 142.3C669.91 141.71 669.01 141.42 667.92 141.42C667.09 141.42 666.37 141.59 665.77 141.94C665.17 142.28 664.68 142.74 664.3 143.32C663.92 143.9 663.64 144.54 663.45 145.25C663.27 145.97 663.18 146.7 663.18 147.42C663.18 148.14 663.27 148.89 663.44 149.6C663.61 150.3 663.89 150.95 664.27 151.51C664.65 152.07 665.14 152.52 665.74 152.86C666.34 153.2 667.07 153.36 667.92 153.36C669.14 153.36 670.11 153.03 670.85 152.36C671.58 151.69 672.05 150.76 672.25 149.58H673.99C673.84 150.36 673.61 151.08 673.3 151.72C672.98 152.36 672.57 152.91 672.07 153.39C671.57 153.85 670.98 154.2 670.28 154.46C669.59 154.71 668.8 154.84 667.91 154.84C666.79 154.84 665.82 154.65 665 154.27C664.18 153.89 663.51 153.37 662.98 152.7C662.45 152.03 662.07 151.25 661.81 150.34C661.55 149.44 661.43 148.46 661.43 147.43C661.43 146.4 661.57 145.51 661.85 144.61C662.13 143.72 662.54 142.91 663.09 142.23C663.63 141.54 664.31 140.98 665.12 140.58C665.93 140.17 666.86 139.97 667.91 139.97C669.55 139.97 670.87 140.35 671.88 141.13C672.88 141.91 673.52 143.13 673.77 144.79H672.11L672.12 144.77Z" fill="#1D1D1B"/>
<path d="M691.76 154.49C691.56 154.53 691.3 154.59 690.97 154.68C690.64 154.77 690.28 154.82 689.88 154.82C689.06 154.82 688.44 154.61 688.01 154.21C687.58 153.8 687.37 153.07 687.37 152.01V141.69H685.38V140.33H687.37V136.4H689V140.33H691.64V141.69H689V151.36C689 151.71 689.01 152 689.03 152.26C689.05 152.51 689.1 152.72 689.19 152.88C689.28 153.04 689.42 153.16 689.61 153.23C689.8 153.31 690.07 153.34 690.41 153.34C690.63 153.34 690.85 153.32 691.08 153.29C691.31 153.25 691.53 153.21 691.75 153.15V154.49H691.76Z" fill="#1D1D1B"/>
<path d="M704.08 137.25V134.83H705.88V137.25H704.08ZM704.16 154.44V140.33H705.8V154.44H704.16Z" fill="#1D1D1B"/>
<path d="M717.99 140.33H719.76L724.33 152.42L728.91 140.33H730.68L725.2 154.44H723.37L717.98 140.33H717.99Z" fill="#1D1D1B"/>
<path d="M748.26 154.82C747.35 154.8 746.5 154.64 745.71 154.33C744.92 154.02 744.23 153.56 743.64 152.94C743.05 152.32 742.58 151.54 742.23 150.62C741.89 149.7 741.71 148.61 741.71 147.38C741.71 146.35 741.85 145.38 742.12 144.48C742.39 143.59 742.8 142.8 743.35 142.13C743.89 141.46 744.58 140.92 745.39 140.53C746.2 140.14 747.16 139.95 748.25 139.95C749.34 139.95 750.32 140.14 751.14 140.53C751.96 140.92 752.64 141.44 753.18 142.11C753.73 142.77 754.13 143.56 754.4 144.47C754.66 145.37 754.79 146.35 754.79 147.38C754.79 148.5 754.64 149.53 754.33 150.43C754.02 151.33 753.58 152.12 753.01 152.77C752.44 153.42 751.75 153.93 750.94 154.29C750.13 154.65 749.24 154.82 748.25 154.82H748.26ZM753.06 147.38C753.06 146.55 752.97 145.76 752.79 145.04C752.61 144.32 752.33 143.68 751.95 143.14C751.57 142.61 751.08 142.19 750.48 141.87C749.88 141.56 749.14 141.41 748.27 141.41C747.4 141.41 746.69 141.58 746.08 141.91C745.47 142.25 744.98 142.69 744.59 143.25C744.2 143.81 743.93 144.44 743.75 145.16C743.56 145.88 743.47 146.62 743.47 147.38C743.47 148.25 743.58 149.06 743.79 149.79C744 150.52 744.3 151.16 744.7 151.69C745.1 152.21 745.6 152.62 746.2 152.92C746.8 153.22 747.49 153.35 748.27 153.35C749.12 153.35 749.86 153.19 750.46 152.85C751.07 152.52 751.56 152.07 751.95 151.5C752.34 150.93 752.61 150.29 752.79 149.59C752.97 148.88 753.06 148.14 753.06 147.38V147.38Z" fill="#1D1D1B"/>
</svg>
