<svg width="63" height="62" viewBox="0 0 63 62" fill="none" xmlns="http://www.w3.org/2000/svg">
<path d="M31 0C13.9 0 0 13.9 0 31C0 36.25 1.29961 41.4002 3.84961 45.9502L1.2002 55.6504C0.750195 57.2004 1.19961 58.8002 2.34961 59.9502C3.49961 61.1002 5.10039 61.5504 6.65039 61.1504L16.75 58.5C21.15 60.8 26.0498 62 31.0498 62C48.1498 62 62.0498 48.1 62.0498 31C62.0498 22.7 58.85 14.9496 53 9.09961C47.1 3.24961 39.3 0 31 0ZM31 3C38.5 3 45.5498 5.9002 50.7998 11.2002C56.0998 16.5002 59.05 23.55 59 31C59 46.45 46.45 59 31 59C26.35 59 21.6996 57.7996 17.5996 55.5996C17.3996 55.4996 17.1504 55.4004 16.9004 55.4004C16.7504 55.4004 16.65 55.4002 16.5 55.4502L5.84961 58.25C5.09961 58.45 4.60039 58.0496 4.40039 57.8496C4.20039 57.6496 3.8 57.1504 4 56.4004L6.7998 46.0996C6.8998 45.6996 6.85039 45.3002 6.65039 44.9502C4.25039 40.7502 3 35.9 3 31C3 15.55 15.55 3 31 3ZM31 7.5C18.05 7.5 7.5 18 7.5 31C7.5 35.15 8.60039 39.2 10.6504 42.75C11.4504 44.15 11.65 45.7996 11.25 47.3496L9.7998 52.5996L15.4004 51.1504C15.9004 51.0004 16.4004 50.9502 16.9004 50.9502C17.9004 50.9502 18.9 51.2002 19.75 51.7002C23.2 53.5002 27.05 54.5 31 54.5C43.95 54.5 54.5 43.95 54.5 31C54.5 24.7 52.0496 18.7996 47.5996 14.3496C43.1996 9.94961 37.3 7.5 31 7.5ZM20.5498 17.3496H21.9502C22.5002 17.3496 23.0496 17.3996 23.5996 18.5996C24.2496 20.0496 25.6996 23.6998 25.8496 24.0498C26.0496 24.3998 26.1504 24.8496 25.9004 25.3496C25.6504 25.8496 25.5504 26.1496 25.1504 26.5996C24.8004 27.0496 24.3498 27.5504 24.0498 27.9004C23.6998 28.2504 23.3 28.6504 23.75 29.4004C24.2 30.1504 25.6496 32.55 27.8496 34.5C30.6496 37 33.0498 37.8004 33.7998 38.1504C34.5498 38.5004 34.9504 38.4502 35.4004 37.9502C35.8504 37.4502 37.25 35.7998 37.75 35.0498C38.25 34.2998 38.7504 34.4502 39.4004 34.7002C40.1004 34.9502 43.7002 36.7496 44.4502 37.0996C45.2002 37.4496 45.6996 37.6502 45.8496 37.9502C46.0496 38.3502 46.0502 39.7998 45.4502 41.5498C44.8502 43.2498 41.8502 44.9498 40.4502 45.0498C39.1002 45.1498 37.8496 45.6502 31.5996 43.2002C24.0996 40.2502 19.35 32.5498 19 32.0498C18.65 31.5498 16 28.0504 16 24.4004C16 20.7504 17.8996 19 18.5996 18.25C19.2996 17.5 20.0498 17.3496 20.5498 17.3496Z" fill="#C09187"/>
</svg>
